{
  "asset": {
    "generator": "UnityGltf 2.19.3, Unity 6000.3.12f1, URP",
    "version": "2.0"
  },
  "extensionsUsed": [
    "KHR_texture_transform"
  ],
  "scene": 0,
  "scenes": [
    {
      "nodes": [
        0
      ],
      "name": "TV-anim"
    }
  ],
  "accessors": [
    {
      "bufferView": 0,
      "componentType": 5126,
      "count": 2563,
      "type": "VEC3",
      "max": [
        0.35588878393173218,
        1.0168993473052979,
        0.614567756652832
      ],
      "min": [
        -0.32065844535827637,
        -0.33204346895217896,
        -0.49601253867149353
      ]
    },
    {
      "bufferView": 1,
      "componentType": 5126,
      "count": 2563,
      "type": "VEC3",
      "max": [
        1.0,
        1.0,
        1.0
      ],
      "min": [
        -1.0,
        -1.0,
        -1.0
      ]
    },
    {
      "bufferView": 2,
      "componentType": 5126,
      "count": 2563,
      "type": "VEC2",
      "max": [
        1.0,
        1.0
      ],
      "min": [
        0.0,
        5.9604644775390625E-08
      ]
    },
    {
      "bufferView": 3,
      "componentType": 5123,
      "count": 6360,
      "type": "SCALAR",
      "max": [
        2380.0
      ],
      "min": [
        0.0
      ]
    },
    {
      "bufferView": 4,
      "componentType": 5123,
      "count": 276,
      "type": "SCALAR",
      "max": [
        2476.0
      ],
      "min": [
        2381.0
      ]
    },
    {
      "bufferView": 5,
      "componentType": 5123,
      "count": 204,
      "type": "SCALAR",
      "max": [
        2562.0
      ],
      "min": [
        2477.0
      ]
    },
    {
      "bufferView": 6,
      "componentType": 5126,
      "count": 60,
      "type": "SCALAR",
      "max": [
        2.0
      ],
      "min": [
        0.0
      ]
    },
    {
      "bufferView": 7,
      "componentType": 5126,
      "count": 60,
      "type": "VEC3",
      "max": [
        0.0,
        0.0,
        1.0
      ],
      "min": [
        0.0,
        0.0,
        0.0
      ]
    },
    {
      "bufferView": 8,
      "componentType": 5126,
      "count": 62,
      "type": "SCALAR",
      "max": [
        2.0666666030883789
      ],
      "min": [
        0.0
      ]
    },
    {
      "bufferView": 9,
      "componentType": 5126,
      "count": 62,
      "type": "VEC3",
      "max": [
        0.0,
        1.0,
        0.0
      ],
      "min": [
        0.0,
        0.0,
        0.0
      ]
    }
  ],
  "animations": [
    {
      "channels": [
        {
          "sampler": 0,
          "target": {
            "node": 0,
            "path": "translation"
          }
        }
      ],
      "samplers": [
        {
          "input": 6,
          "interpolation": "LINEAR",
          "output": 7
        }
      ],
      "name": "LeftRight"
    },
    {
      "channels": [
        {
          "sampler": 0,
          "target": {
            "node": 0,
            "path": "translation"
          }
        }
      ],
      "samplers": [
        {
          "input": 8,
          "interpolation": "LINEAR",
          "output": 9
        }
      ],
      "name": "UpDown"
    }
  ],
  "buffers": [
    {
      "uri": "TV-anim.bin",
      "byteLength": 97648
    }
  ],
  "bufferViews": [
    {
      "buffer": 0,
      "byteLength": 30756,
      "byteStride": 12,
      "target": 34962
    },
    {
      "buffer": 0,
      "byteOffset": 30756,
      "byteLength": 30756,
      "byteStride": 12,
      "target": 34962
    },
    {
      "buffer": 0,
      "byteOffset": 61512,
      "byteLength": 20504,
      "target": 34962
    },
    {
      "buffer": 0,
      "byteOffset": 82016,
      "byteLength": 12720,
      "target": 34963
    },
    {
      "buffer": 0,
      "byteOffset": 94736,
      "byteLength": 552,
      "target": 34963
    },
    {
      "buffer": 0,
      "byteOffset": 95288,
      "byteLength": 408,
      "target": 34963
    },
    {
      "buffer": 0,
      "byteOffset": 95696,
      "byteLength": 240
    },
    {
      "buffer": 0,
      "byteOffset": 95936,
      "byteLength": 720
    },
    {
      "buffer": 0,
      "byteOffset": 96656,
      "byteLength": 248
    },
    {
      "buffer": 0,
      "byteOffset": 96904,
      "byteLength": 744
    }
  ],
  "images": [
    {
      "uri": "TV.jpg",
      "name": "TV"
    },
    {
      "uri": "TV-1.jpg",
      "name": "TV"
    },
    {
      "uri": "TV_0.jpg",
      "name": "TV_0"
    },
    {
      "uri": "TV_1.jpg",
      "name": "TV_1"
    }
  ],
  "materials": [
    {
      "pbrMetallicRoughness": {
        "baseColorTexture": {
          "index": 0,
          "extensions": {
            "KHR_texture_transform": {
              "texCoord": 0
            }
          }
        },
        "metallicRoughnessTexture": {
          "index": 1,
          "extensions": {
            "KHR_texture_transform": {
              "texCoord": 0
            }
          }
        }
      },
      "doubleSided": true,
      "name": "Gm"
    },
    {
      "pbrMetallicRoughness": {
        "baseColorTexture": {
          "index": 2,
          "extensions": {
            "KHR_texture_transform": {
              "texCoord": 0
            }
          }
        },
        "metallicFactor": 0.0,
        "roughnessFactor": 0.30000001192092896
      },
      "doubleSided": true,
      "name": "Img"
    },
    {
      "pbrMetallicRoughness": {
        "baseColorTexture": {
          "index": 3,
          "extensions": {
            "KHR_texture_transform": {
              "texCoord": 0
            }
          }
        },
        "metallicFactor": 0.0,
        "roughnessFactor": 0.5
      },
      "doubleSided": true,
      "name": "Wood"
    }
  ],
  "meshes": [
    {
      "primitives": [
        {
          "attributes": {
            "POSITION": 0,
            "NORMAL": 1,
            "TEXCOORD_0": 2
          },
          "indices": 3,
          "material": 0
        },
        {
          "attributes": {
            "POSITION": 0,
            "NORMAL": 1,
            "TEXCOORD_0": 2
          },
          "indices": 4,
          "material": 1
        },
        {
          "attributes": {
            "POSITION": 0,
            "NORMAL": 1,
            "TEXCOORD_0": 2
          },
          "indices": 5,
          "material": 2
        }
      ],
      "name": "TV-anim"
    }
  ],
  "nodes": [
    {
      "mesh": 0,
      "name": "TV-anim"
    }
  ],
  "samplers": [
    {
      "minFilter": 9987
    }
  ],
  "textures": [
    {
      "sampler": 0,
      "source": 0,
      "name": "TV"
    },
    {
      "sampler": 0,
      "source": 1,
      "name": "TV"
    },
    {
      "sampler": 0,
      "source": 2,
      "name": "TV_0"
    },
    {
      "sampler": 0,
      "source": 3,
      "name": "TV_1"
    }
  ]
}